<svg width="16" height="16" viewBox="0 0 16 16" fill="none" xmlns="http://www.w3.org/2000/svg">
<g clip-path="url(#clip0_2110_1260)">
<path d="M12 5.33334C12 4.27248 11.5786 3.25506 10.8284 2.50492C10.0783 1.75477 9.06087 1.33334 8 1.33334C6.93913 1.33334 5.92172 1.75477 5.17157 2.50492C4.42143 3.25506 4 4.27248 4 5.33334C4 10 2 11.3333 2 11.3333H14C14 11.3333 12 10 12 5.33334Z" stroke="white" stroke-width="2" stroke-linecap="round" stroke-linejoin="round"/>
<path d="M9.15335 14C9.03614 14.2021 8.86791 14.3698 8.6655 14.4864C8.46309 14.6029 8.2336 14.6643 8.00001 14.6643C7.76643 14.6643 7.53694 14.6029 7.33453 14.4864C7.13212 14.3698 6.96389 14.2021 6.84668 14" stroke="white" stroke-width="2" stroke-linecap="round" stroke-linejoin="round"/>
<path d="M1.33337 5.33334C1.33337 3.86668 1.80004 2.46668 2.66671 1.33334" stroke="white" stroke-width="2" stroke-linecap="round" stroke-linejoin="round"/>
<path d="M14.6667 5.33334C14.6667 3.89088 14.1989 2.48732 13.3334 1.33334" stroke="white" stroke-width="2" stroke-linecap="round" stroke-linejoin="round"/>
</g>
<defs>
<clipPath id="clip0_2110_1260">
<rect width="16" height="16" fill="white"/>
</clipPath>
</defs>
</svg>
